<mxfile host="app.diagrams.net" modified="2021-01-17T21:09:49.040Z" agent="5.0 (X11; Linux x86_64) AppleWebKit/537.36 (KHTML, like Gecko) Chrome/87.0.4280.141 Safari/537.36" etag="5Ko0RrEe-73RDEvXer2O" version="14.2.4" type="github">
  <diagram id="R2lEEEUBdFMjLlhIrx00" name="Page-1">
    <mxGraphModel dx="813" dy="409" grid="1" gridSize="10" guides="1" tooltips="1" connect="1" arrows="1" fold="1" page="1" pageScale="1" pageWidth="1169" pageHeight="827" math="0" shadow="0" extFonts="Permanent Marker^https://fonts.googleapis.com/css?family=Permanent+Marker">
      <root>
        <mxCell id="0" />
        <mxCell id="1" parent="0" />
        <mxCell id="TyF6mIICo5NyvElbE3Uj-1" value="Кафедра" style="whiteSpace=wrap;html=1;align=center;" parent="1" vertex="1">
          <mxGeometry x="570" y="127" width="100" height="43" as="geometry" />
        </mxCell>
        <mxCell id="TyF6mIICo5NyvElbE3Uj-2" value="Сотрудник" style="whiteSpace=wrap;html=1;align=center;" parent="1" vertex="1">
          <mxGeometry x="570" y="390" width="100" height="40" as="geometry" />
        </mxCell>
        <mxCell id="TyF6mIICo5NyvElbE3Uj-4" value="Проект" style="whiteSpace=wrap;html=1;align=center;" parent="1" vertex="1">
          <mxGeometry x="800" y="267" width="100" height="40" as="geometry" />
        </mxCell>
        <mxCell id="TyF6mIICo5NyvElbE3Uj-5" value="Состоит в" style="shape=rhombus;perimeter=rhombusPerimeter;whiteSpace=wrap;html=1;align=center;" parent="1" vertex="1">
          <mxGeometry x="560" y="257" width="120" height="60" as="geometry" />
        </mxCell>
        <mxCell id="TyF6mIICo5NyvElbE3Uj-6" value="&lt;div&gt;Работает &lt;br&gt;&lt;/div&gt;&lt;div&gt;над&lt;/div&gt;" style="shape=rhombus;perimeter=rhombusPerimeter;whiteSpace=wrap;html=1;align=center;" parent="1" vertex="1">
          <mxGeometry x="680" y="320" width="120" height="60" as="geometry" />
        </mxCell>
        <mxCell id="TyF6mIICo5NyvElbE3Uj-7" value="Заведует" style="shape=rhombus;perimeter=rhombusPerimeter;whiteSpace=wrap;html=1;align=center;" parent="1" vertex="1">
          <mxGeometry x="400" y="257" width="120" height="60" as="geometry" />
        </mxCell>
        <mxCell id="TyF6mIICo5NyvElbE3Uj-8" value="" style="endArrow=none;html=1;rounded=0;exitX=0.5;exitY=1;exitDx=0;exitDy=0;entryX=0.5;entryY=0;entryDx=0;entryDy=0;" parent="1" source="TyF6mIICo5NyvElbE3Uj-7" target="TyF6mIICo5NyvElbE3Uj-2" edge="1">
          <mxGeometry relative="1" as="geometry">
            <mxPoint x="570" y="530" as="sourcePoint" />
            <mxPoint x="730" y="530" as="targetPoint" />
          </mxGeometry>
        </mxCell>
        <mxCell id="TyF6mIICo5NyvElbE3Uj-9" value="" style="endArrow=none;html=1;rounded=0;exitX=0.5;exitY=1;exitDx=0;exitDy=0;" parent="1" source="TyF6mIICo5NyvElbE3Uj-5" target="TyF6mIICo5NyvElbE3Uj-2" edge="1">
          <mxGeometry relative="1" as="geometry">
            <mxPoint x="570" y="530" as="sourcePoint" />
            <mxPoint x="730" y="530" as="targetPoint" />
          </mxGeometry>
        </mxCell>
        <mxCell id="TyF6mIICo5NyvElbE3Uj-10" value="" style="endArrow=none;html=1;rounded=0;entryX=0.5;entryY=1;entryDx=0;entryDy=0;" parent="1" target="TyF6mIICo5NyvElbE3Uj-6" edge="1">
          <mxGeometry relative="1" as="geometry">
            <mxPoint x="620" y="390" as="sourcePoint" />
            <mxPoint x="730" y="530" as="targetPoint" />
          </mxGeometry>
        </mxCell>
        <mxCell id="TyF6mIICo5NyvElbE3Uj-11" value="" style="endArrow=none;html=1;rounded=0;exitX=0.5;exitY=1;exitDx=0;exitDy=0;entryX=0.5;entryY=0;entryDx=0;entryDy=0;" parent="1" source="TyF6mIICo5NyvElbE3Uj-4" target="TyF6mIICo5NyvElbE3Uj-6" edge="1">
          <mxGeometry relative="1" as="geometry">
            <mxPoint x="560" y="450" as="sourcePoint" />
            <mxPoint x="733" y="320" as="targetPoint" />
          </mxGeometry>
        </mxCell>
        <mxCell id="TyF6mIICo5NyvElbE3Uj-12" value="" style="endArrow=none;html=1;rounded=0;exitX=0.5;exitY=1;exitDx=0;exitDy=0;entryX=0.5;entryY=0;entryDx=0;entryDy=0;" parent="1" source="TyF6mIICo5NyvElbE3Uj-1" target="TyF6mIICo5NyvElbE3Uj-5" edge="1">
          <mxGeometry relative="1" as="geometry">
            <mxPoint x="560" y="330" as="sourcePoint" />
            <mxPoint x="720" y="330" as="targetPoint" />
          </mxGeometry>
        </mxCell>
        <mxCell id="TyF6mIICo5NyvElbE3Uj-13" value="" style="endArrow=none;html=1;rounded=0;exitX=0.5;exitY=0;exitDx=0;exitDy=0;entryX=0.5;entryY=1;entryDx=0;entryDy=0;" parent="1" source="TyF6mIICo5NyvElbE3Uj-7" target="TyF6mIICo5NyvElbE3Uj-1" edge="1">
          <mxGeometry relative="1" as="geometry">
            <mxPoint x="560" y="330" as="sourcePoint" />
            <mxPoint x="720" y="330" as="targetPoint" />
          </mxGeometry>
        </mxCell>
        <mxCell id="TyF6mIICo5NyvElbE3Uj-14" value="Участвует" style="shape=rhombus;perimeter=rhombusPerimeter;whiteSpace=wrap;html=1;align=center;" parent="1" vertex="1">
          <mxGeometry x="680" y="190" width="120" height="60" as="geometry" />
        </mxCell>
        <mxCell id="TyF6mIICo5NyvElbE3Uj-15" value="" style="endArrow=none;html=1;rounded=0;exitX=0.5;exitY=1;exitDx=0;exitDy=0;entryX=0.5;entryY=0;entryDx=0;entryDy=0;" parent="1" source="TyF6mIICo5NyvElbE3Uj-1" target="TyF6mIICo5NyvElbE3Uj-14" edge="1">
          <mxGeometry relative="1" as="geometry">
            <mxPoint x="560" y="330" as="sourcePoint" />
            <mxPoint x="720" y="330" as="targetPoint" />
          </mxGeometry>
        </mxCell>
        <mxCell id="TyF6mIICo5NyvElbE3Uj-16" value="" style="endArrow=none;html=1;rounded=0;exitX=0.5;exitY=1;exitDx=0;exitDy=0;entryX=0.544;entryY=-0.004;entryDx=0;entryDy=0;entryPerimeter=0;" parent="1" source="TyF6mIICo5NyvElbE3Uj-14" target="TyF6mIICo5NyvElbE3Uj-4" edge="1">
          <mxGeometry relative="1" as="geometry">
            <mxPoint x="640" y="327" as="sourcePoint" />
            <mxPoint x="800" y="327" as="targetPoint" />
          </mxGeometry>
        </mxCell>
        <mxCell id="V0ueW-fKSgQHRMRzVjqf-1" value="Факультет" style="whiteSpace=wrap;html=1;align=center;" vertex="1" parent="1">
          <mxGeometry x="210" y="250" width="100" height="40" as="geometry" />
        </mxCell>
        <mxCell id="V0ueW-fKSgQHRMRzVjqf-2" value="Состоит из" style="shape=rhombus;perimeter=rhombusPerimeter;whiteSpace=wrap;html=1;align=center;" vertex="1" parent="1">
          <mxGeometry x="340" y="180" width="120" height="60" as="geometry" />
        </mxCell>
        <mxCell id="V0ueW-fKSgQHRMRzVjqf-5" value="Руководит" style="shape=rhombus;perimeter=rhombusPerimeter;whiteSpace=wrap;html=1;align=center;" vertex="1" parent="1">
          <mxGeometry x="310" y="317" width="120" height="60" as="geometry" />
        </mxCell>
        <mxCell id="V0ueW-fKSgQHRMRzVjqf-6" value="" style="endArrow=none;html=1;rounded=0;entryX=0.5;entryY=0;entryDx=0;entryDy=0;exitX=0.5;exitY=1;exitDx=0;exitDy=0;" edge="1" parent="1" source="V0ueW-fKSgQHRMRzVjqf-1" target="V0ueW-fKSgQHRMRzVjqf-5">
          <mxGeometry relative="1" as="geometry">
            <mxPoint x="260" y="80" as="sourcePoint" />
            <mxPoint x="620" y="230" as="targetPoint" />
          </mxGeometry>
        </mxCell>
        <mxCell id="V0ueW-fKSgQHRMRzVjqf-7" value="" style="endArrow=none;html=1;rounded=0;exitX=0.5;exitY=1;exitDx=0;exitDy=0;" edge="1" parent="1" source="V0ueW-fKSgQHRMRzVjqf-5">
          <mxGeometry relative="1" as="geometry">
            <mxPoint x="460" y="230" as="sourcePoint" />
            <mxPoint x="620" y="390" as="targetPoint" />
          </mxGeometry>
        </mxCell>
        <mxCell id="V0ueW-fKSgQHRMRzVjqf-8" value="" style="endArrow=none;html=1;rounded=0;exitX=0.5;exitY=0;exitDx=0;exitDy=0;" edge="1" parent="1" source="V0ueW-fKSgQHRMRzVjqf-2">
          <mxGeometry relative="1" as="geometry">
            <mxPoint x="460" y="230" as="sourcePoint" />
            <mxPoint x="620" y="170" as="targetPoint" />
          </mxGeometry>
        </mxCell>
        <mxCell id="V0ueW-fKSgQHRMRzVjqf-9" value="" style="endArrow=none;html=1;rounded=0;entryX=0.5;entryY=1;entryDx=0;entryDy=0;exitX=0.461;exitY=-0.046;exitDx=0;exitDy=0;exitPerimeter=0;" edge="1" parent="1" source="V0ueW-fKSgQHRMRzVjqf-1" target="V0ueW-fKSgQHRMRzVjqf-2">
          <mxGeometry relative="1" as="geometry">
            <mxPoint x="460" y="230" as="sourcePoint" />
            <mxPoint x="620" y="230" as="targetPoint" />
          </mxGeometry>
        </mxCell>
      </root>
    </mxGraphModel>
  </diagram>
</mxfile>
